<svg id="图层_1" data-name="图层 1" xmlns="http://www.w3.org/2000/svg" viewBox="0 0 331.63 372.97"><defs><style>.cls-1,.cls-3,.cls-4,.cls-7{fill:#fff;}.cls-2{fill:#00488f;}.cls-3{font-size:17.45px;}.cls-3,.cls-4{font-family:HGZY_CNKI;}.cls-4{font-size:21.91px;}.cls-5{fill:none;}.cls-6{fill:#f18d02;}.cls-7{stroke:#fff;stroke-miterlimit:10;}</style></defs><circle class="cls-1" cx="177.1" cy="188.32" r="140.92"/><circle class="cls-2" cx="178.38" cy="188.32" r="145.98"/><text class="cls-3" transform="translate(42.82 178.26) rotate(93.23)">I</text><text class="cls-3" transform="matrix(0.01, 1, -1, 0.01, 42.4, 183.13)">N</text><text class="cls-3" transform="translate(42.65 196.95) rotate(84)">T</text><text class="cls-3" transform="matrix(0.18, 0.98, -0.98, 0.18, 43.78, 207.64)">E</text><text class="cls-3" transform="translate(45.77 218.19) rotate(75.08)">L</text><text class="cls-3" transform="translate(48.29 227.63) rotate(70.94)">L</text><text class="cls-3" transform="translate(51.49 236.69) rotate(67.9)">I</text><text class="cls-3" transform="matrix(0.44, 0.9, -0.9, 0.44, 53.19, 241.27)">G</text><text class="cls-3" transform="matrix(0.52, 0.86, -0.86, 0.52, 59.31, 253.64)">E</text><text class="cls-3" transform="translate(64.9 262.96) rotate(53.52)">N</text><text class="cls-3" transform="matrix(0.67, 0.75, -0.75, 0.67, 73.17, 274.02)">T</text><text class="cls-3" transform="matrix(0.71, 0.71, -0.71, 0.71, 80.28, 281.86)"> </text><text class="cls-3" transform="translate(83.64 285.43) rotate(40.98)">U</text><text class="cls-3" transform="translate(94.15 294.53) rotate(35.02)">N</text><text class="cls-3" transform="translate(105.56 302.59) rotate(28.48)">M</text><text class="cls-3" transform="translate(120.35 310.48) rotate(22.27)">A</text><text class="cls-3" transform="translate(132.2 315.35) rotate(16.64)">N</text><text class="cls-3" transform="matrix(0.98, 0.19, -0.19, 0.98, 145.5, 319.3)">N</text><text class="cls-3" transform="matrix(1, 0.09, -0.09, 1, 159.08, 321.79)">E</text><text class="cls-3" transform="translate(169.9 322.85) rotate(0.35)">D</text><text class="cls-3" transform="translate(182.44 322.8) rotate(-3.36)"> </text><text class="cls-3" transform="translate(187.28 322.62) rotate(-6.86)">S</text><text class="cls-3" transform="translate(198.97 321.2) rotate(-11.87)">Y</text><text class="cls-3" transform="translate(210.52 318.77) rotate(-16.87)">S</text><text class="cls-3" transform="matrix(0.93, -0.37, 0.37, 0.93, 221.74, 315.34)">T</text><text class="cls-3" transform="translate(231.76 311.36) rotate(-26.19)">E</text><text class="cls-3" transform="matrix(0.85, -0.53, 0.53, 0.85, 241.64, 306.65)">M</text><text class="cls-3" transform="translate(255.8 297.61) rotate(-38.17)">S</text><text class="cls-3" transform="translate(264.82 290.38) rotate(-41.68)"> </text><text class="cls-3" transform="translate(268.44 287.25) rotate(-44.76)">L</text><text class="cls-3" transform="translate(275.49 280.34) rotate(-49.61)">A</text><text class="cls-3" transform="matrix(0.58, -0.82, 0.82, 0.58, 283.72, 270.61)">B</text><text class="cls-3" transform="translate(290.58 260.92) rotate(-60.34)">O</text><text class="cls-3" transform="matrix(0.4, -0.92, 0.92, 0.4, 297.5, 248.82)">R</text><text class="cls-3" transform="translate(302.23 238.13) rotate(-70.89)">A</text><text class="cls-3" transform="translate(306.35 226.07) rotate(-75.91)">T</text><text class="cls-3" transform="translate(309.06 215.54) rotate(-81.19)">O</text><text class="cls-3" transform="translate(311.11 201.87) rotate(-86.69)">R</text><text class="cls-3" transform="translate(311.79 190.09) rotate(-91.74)">Y</text><text class="cls-4" transform="translate(61.55 151.17) rotate(-67.04)">W</text><text class="cls-4" transform="translate(71.63 128.86) rotate(-57.48)">E</text><text class="cls-4" transform="matrix(0.65, -0.76, 0.76, 0.65, 80.38, 115.4)">S</text><text class="cls-4" transform="translate(91.71 102.45) rotate(-41.63)">T</text><text class="cls-4" transform="matrix(0.83, -0.56, 0.56, 0.83, 103.88, 91.92)">L</text><text class="cls-4" transform="translate(116.19 83.62) rotate(-26.48)">A</text><text class="cls-4" transform="translate(132.78 75.62) rotate(-18.09)">K</text><text class="cls-4" transform="translate(149.22 70.48) rotate(-10.16)">E</text><text class="cls-4" transform="translate(165.17 67.96) rotate(-4.18)"> </text><text class="cls-4" transform="translate(173.99 67.16) rotate(2.62)">U</text><text class="cls-4" transform="translate(193.6 68.27) rotate(11.9)">N</text><text class="cls-4" transform="translate(212.84 72.82) rotate(18.64)">I</text><text class="cls-4" transform="matrix(0.91, 0.42, -0.42, 0.91, 221.29, 75.55)">V</text><text class="cls-4" transform="translate(237.86 83.61) rotate(33.25)">E</text><text class="cls-4" transform="matrix(0.75, 0.66, -0.66, 0.75, 251.19, 92.52)">R</text><text class="cls-4" transform="translate(264.02 103.99) rotate(49.37)">S</text><text class="cls-4" transform="translate(275.02 117.4) rotate(55.61)">I</text><text class="cls-4" transform="matrix(0.48, 0.88, -0.88, 0.48, 280.09, 124.74)">T</text><text class="cls-4" transform="translate(287.63 138.91) rotate(69.3)">Y</text><path class="cls-1" d="M195.54,146.88a1.81,1.81,0,1,1-1.81-1.81A1.81,1.81,0,0,1,195.54,146.88Z" transform="translate(28.38 38.32)"/><path class="cls-1" d="M193.73,153a6.1,6.1,0,1,1,6.1-6.09A6.09,6.09,0,0,1,193.73,153Zm0-10.2a4.11,4.11,0,1,0,4.11,4.11A4.11,4.11,0,0,0,193.73,142.77Z" transform="translate(28.38 38.32)"/><path class="cls-1" d="M190.82,134.22v5.59l.72-.88h5.59v-5.32l-1.42.68Z" transform="translate(28.38 38.32)"/><path class="cls-1" d="M189.72,130.79a1,1,0,0,0-.06,1.36l4.3.07-2.54-.78a1.18,1.18,0,0,0-.37-.51A1.12,1.12,0,0,0,189.72,130.79Z" transform="translate(28.38 38.32)"/><path class="cls-1" d="M197.74,130.79a1,1,0,0,1,.07,1.36l-4.31.07,2.54-.78a1.31,1.31,0,0,1,.38-.51A1.11,1.11,0,0,1,197.74,130.79Z" transform="translate(28.38 38.32)"/><path class="cls-1" d="M199.16,117H188.89c-.12.8-.24,1.58-.37,2.38.37-.21.76-.46,1.13-.68h1.51c-.08,1.51-.17,3-.27,4.51a4.67,4.67,0,0,0-.1,6,4.06,4.06,0,0,0,4.83.88,4.11,4.11,0,0,0,1.76-3,5.36,5.36,0,0,0-1-3.95c-.1-1.48-.22-3-.32-4.46h2.44c.39.83.64,1.25.78,1.2S199.45,118.83,199.16,117Zm-5.56,11.89a2,2,0,1,1,2-2A2,2,0,0,1,193.6,128.85Z" transform="translate(28.38 38.32)"/><path class="cls-1" d="M189.54,153.44a3.38,3.38,0,0,0,1.38,1.48,5.18,5.18,0,0,0,3.76.28l-11,13.55a2.72,2.72,0,0,0-.83-1.31,3.49,3.49,0,0,0-2.31-.75Z" transform="translate(28.38 38.32)"/><path class="cls-1" d="M182.85,171.36a6.1,6.1,0,0,0-8.15-2.85,4.59,4.59,0,0,0-.49.26l.78,1.65a3.84,3.84,0,0,1,.49-.27,4.23,4.23,0,1,1,3.59,7.65,5.21,5.21,0,0,1-.5.2l.77,1.65a4.4,4.4,0,0,0,.5-.21A6.1,6.1,0,0,0,182.85,171.36Z" transform="translate(28.38 38.32)"/><path class="cls-1" d="M180.2,168.55a6.09,6.09,0,0,0-8.22,2.61q-.14.26-.24.51l1.61.85a3.82,3.82,0,0,1,.23-.51,4.23,4.23,0,1,1,7.47,4,3.58,3.58,0,0,1-.29.46l1.62.86.27-.47A6.1,6.1,0,0,0,180.2,168.55Z" transform="translate(28.38 38.32)"/><path class="cls-1" d="M166.62,100.48C153,99,149.73,99.16,149.7,99.73s4.6,2.3,8.73,2.83a25,25,0,0,0,6.32,0Z" transform="translate(28.38 38.32)"/><path class="cls-1" d="M165.07,100.48C178.65,99,182,99.16,182,99.73s-4.59,2.3-8.73,2.83a25,25,0,0,1-6.32,0C166.32,101.86,165.69,101.17,165.07,100.48Z" transform="translate(28.38 38.32)"/><path class="cls-1" d="M163.46,101.58a2.08,2.08,0,0,1-.25,2.16,1.21,1.21,0,0,1-1,.18c0,1.5.16,2.49.21,4h1.94v3.27l.83,0v10.86h.72V111.39h.68l-.06-3.52h1.89v-.75l.61.18.95-.08h11.41a.63.63,0,0,1,.68.65.61.61,0,0,1-.68.47v3.49a11.1,11.1,0,0,1,5.39,2,10.27,10.27,0,0,1,1.87,1.72l10.09,0a15.57,15.57,0,0,1,2.81-2.33,14.61,14.61,0,0,1,1.44-.83h3.12V107.2h11.46c.71.06,1.44.09,2.21.1.31,0,.61,0,.91,0,0,.25,0,.5-.05.75h.91c0,.81-.07,1.62-.11,2.44l.62,0v11.35a.83.83,0,0,0,.94.68.79.79,0,0,0,.57-.68q.13-5.88.25-11.75l.83.07v-2.12c.49,0,.44.08.93.08,0-2.16.11-4.32.16-6.48l-5.29-.12c.06.35.12.7.19,1-.07.69-.14,1.39-.22,2.08l-17.76-.15-.83.72c-.14-.17-.28-.34-.43-.5h-2.26v-1.2H188.4v1.23l-17.18-.36h-3a2.68,2.68,0,0,1-.43-1.23,2.74,2.74,0,0,1,.32-1.55Z" transform="translate(28.38 38.32)"/><path class="cls-1" d="M223.52,100.48c-13.58-1.5-16.88-1.32-16.92-.75s4.6,2.3,8.73,2.83a25.05,25.05,0,0,0,6.33,0Z" transform="translate(28.38 38.32)"/><path class="cls-1" d="M222,100.48c13.59-1.5,16.89-1.32,16.92-.75s-4.59,2.3-8.73,2.83a25,25,0,0,1-6.32,0C223.22,101.86,222.59,101.17,222,100.48Z" transform="translate(28.38 38.32)"/><rect class="cls-1" x="199.67" y="142.78" width="50.18" height="2.21"/><rect class="cls-1" x="222.4" y="101.09" width="1.89" height="1.61" transform="translate(475.07 242.11) rotate(-180)"/><rect class="cls-1" x="165.54" y="100.98" width="1.89" height="1.61" transform="translate(361.35 241.89) rotate(-180)"/><path class="cls-1" d="M102.63,146.88a1.81,1.81,0,1,0,1.81-1.81A1.81,1.81,0,0,0,102.63,146.88Z" transform="translate(28.38 38.32)"/><path class="cls-1" d="M98.34,146.88a6.1,6.1,0,1,1,6.1,6.09A6.11,6.11,0,0,1,98.34,146.88Zm2,0a4.1,4.1,0,1,0,4.1-4.11A4.11,4.11,0,0,0,100.34,146.88Z" transform="translate(28.38 38.32)"/><path class="cls-1" d="M107.35,134.22v5.59c-.24-.29-.48-.58-.71-.88H101v-5.32l1.42.68Z" transform="translate(28.38 38.32)"/><path class="cls-1" d="M108.45,130.79a1,1,0,0,1,.07,1.36l-4.31.07,2.54-.78a1.22,1.22,0,0,1,.38-.51A1.11,1.11,0,0,1,108.45,130.79Z" transform="translate(28.38 38.32)"/><path class="cls-1" d="M100.43,130.79a1,1,0,0,0-.07,1.36l4.31.07-2.54-.78a1.27,1.27,0,0,0-.37-.51A1.12,1.12,0,0,0,100.43,130.79Z" transform="translate(28.38 38.32)"/><path class="cls-1" d="M98.87,119.86c.15,0,.39-.37.78-1.2h2.44c-.1,1.49-.22,3-.32,4.46a5.37,5.37,0,0,0-1,3.95,3.68,3.68,0,0,0,6.58,2.12,4.67,4.67,0,0,0-.1-6c-.09-1.48-.19-3-.27-4.51h1.52c.36.22.75.47,1.12.68-.12-.8-.25-1.58-.37-2.38H99C98.72,118.83,98.68,119.81,98.87,119.86Zm3.68,7a2,2,0,0,1,2-2,2,2,0,0,1,0,4A2,2,0,0,1,102.55,126.83Z" transform="translate(28.38 38.32)"/><path class="cls-1" d="M108.63,153.44a3.26,3.26,0,0,1-1.38,1.48,5.18,5.18,0,0,1-3.76.28l11,13.55a2.72,2.72,0,0,1,.83-1.31,3.49,3.49,0,0,1,2.31-.75Q113.15,160.06,108.63,153.44Z" transform="translate(28.38 38.32)"/><path class="cls-1" d="M118.33,179.44a5.32,5.32,0,0,0,.5.21l.78-1.65a4.5,4.5,0,0,1-.51-.2,4.23,4.23,0,1,1,3.6-7.65,3.72,3.72,0,0,1,.48.27l.78-1.65a4.59,4.59,0,0,0-.49-.26,6,6,0,1,0-5.14,10.93Z" transform="translate(28.38 38.32)"/><path class="cls-1" d="M115.52,176.82c.09.16.18.32.28.47l1.61-.86a3.52,3.52,0,0,1-.28-.46,4.22,4.22,0,1,1,7.46-4,3.82,3.82,0,0,1,.23.51l1.62-.85-.24-.51a6,6,0,1,0-10.68,5.66Z" transform="translate(28.38 38.32)"/><path class="cls-1" d="M131.55,100.48c13.58-1.5,16.89-1.32,16.92-.75s-4.59,2.3-8.73,2.83a25,25,0,0,1-6.32,0C132.8,101.86,132.17,101.17,131.55,100.48Z" transform="translate(28.38 38.32)"/><path class="cls-1" d="M133.1,100.48c-13.58-1.5-16.89-1.32-16.92-.75s4.6,2.3,8.73,2.83a25.05,25.05,0,0,0,6.33,0Z" transform="translate(28.38 38.32)"/><path class="cls-1" d="M134.71,101.58a2.1,2.1,0,0,0,.25,2.16,1.23,1.23,0,0,0,1,.18c-.05,1.5-.17,2.49-.22,4h-1.94v3.27l-.82,0v10.86h-.73V111.39h-.68l.06-3.52h-1.88c0-.25,0-.5,0-.75l-.61.18-.95-.08H116.78a.64.64,0,0,0-.68.65.62.62,0,0,0,.68.47v3.49a11.13,11.13,0,0,0-5.39,2,10.27,10.27,0,0,0-1.87,1.72l-10.09,0a15.57,15.57,0,0,0-2.81-2.33,14.51,14.51,0,0,0-1.43-.83H92.06V107.2H80.6c-.7.06-1.44.09-2.21.1-.31,0-.61,0-.91,0,0,.25,0,.5,0,.75h-.9c0,.81.07,1.62.1,2.44l-.62,0v11.35a.82.82,0,0,1-.93.68.78.78,0,0,1-.58-.68q-.12-5.88-.25-11.75l-.83.07v-2.12c-.49,0-.44.08-.93.08l-.15-6.48,5.29-.12c-.07.35-.13.7-.2,1,.07.69.15,1.39.22,2.08l17.76-.15.83.72c.14-.17.28-.34.43-.5H99v-1.2h10.75v1.23l17.17-.36h3a2.68,2.68,0,0,0,.43-1.23,2.74,2.74,0,0,0-.32-1.55Z" transform="translate(28.38 38.32)"/><path class="cls-1" d="M74.65,100.48c13.58-1.5,16.89-1.32,16.92-.75s-4.6,2.3-8.73,2.83a25,25,0,0,1-6.32,0Z" transform="translate(28.38 38.32)"/><path class="cls-1" d="M76.2,100.48c-13.58-1.5-16.89-1.32-16.92-.75s4.6,2.3,8.73,2.83a25,25,0,0,0,6.32,0Z" transform="translate(28.38 38.32)"/><rect class="cls-1" x="76.71" y="104.47" width="50.18" height="2.21" transform="translate(231.98 249.46) rotate(-180)"/><rect class="cls-1" x="102.27" y="139.41" width="1.89" height="1.61"/><rect class="cls-1" x="159.13" y="139.3" width="1.89" height="1.61"/><line class="cls-5" x1="182.5" y1="224.96" x2="182.36" y2="233.99"/><path class="cls-1" d="M155.71,182.64l-.24,15.92a1.89,1.89,0,0,1-1.89,1.87l-30.66-.12a1.89,1.89,0,0,1-1.54-3l11-15.81a1.91,1.91,0,0,1,1.55-.8h19.9A1.88,1.88,0,0,1,155.71,182.64Z" transform="translate(28.38 38.32)"/><path class="cls-1" d="M142.91,182.68l.23,15.84a1.94,1.94,0,0,0,1.94,1.91l30.54-.12a1.93,1.93,0,0,0,1.57-3l-10.94-15.73a1.91,1.91,0,0,0-1.58-.82H144.84A1.93,1.93,0,0,0,142.91,182.68Z" transform="translate(28.38 38.32)"/><path class="cls-1" d="M178.87,200.43a1.48,1.48,0,0,1,0,.21,2.84,2.84,0,0,1-.68,1.52,7,7,0,0,1-1.75,1.48h0c-.27.17-.58.34-.9.51a34.5,34.5,0,0,1-9,2.82l-.94.18h0l-1,.18c-2.32.38-4.85.68-7.53.88h0c-2.52.19-5.18.29-7.92.29q-3.19,0-6.2-.18h0a88.79,88.79,0,0,1-9.21-1h0l-.63-.1c-5.34-.93-9.52-2.31-11.8-3.95h0l-.38-.28h0a4.63,4.63,0,0,1-1.17-1.29,2.51,2.51,0,0,1-.37-1.27,3,3,0,0,1,.94-2h0a7.75,7.75,0,0,1,1-.84c2-1.41,5.37-2.63,9.7-3.53,1.25-.26,2.58-.5,4-.7,2.52-.37,5.26-.65,8.15-.81,1.94-.11,4-.16,6-.16,1.68,0,3.33,0,4.94.11l1.53.08c2.88.17,5.6.46,8.1.84h0c1.78.27,3.45.59,5,1h0c4.1,1,7.21,2.23,8.87,3.67a5.22,5.22,0,0,1,.62.63A2.77,2.77,0,0,1,178.87,200.43Z" transform="translate(28.38 38.32)"/><path class="cls-1" d="M157.08,211.19l-.22-9.45a2.07,2.07,0,0,0-2-2.08l-32.14.08a2.15,2.15,0,0,0-1.3,3.74l10.25,9.38a1.94,1.94,0,0,0,1.31.51h22.11A2.07,2.07,0,0,0,157.08,211.19Z" transform="translate(28.38 38.32)"/><path class="cls-1" d="M142.84,209.69l.22-9.36a2,2,0,0,1,2-2.05l31.81.08a2.13,2.13,0,0,1,1.29,3.7L168,211.34a1.92,1.92,0,0,1-1.3.51H144.82A2.05,2.05,0,0,1,142.84,209.69Z" transform="translate(28.38 38.32)"/><path class="cls-1" d="M168,208.05v3.42a2.11,2.11,0,0,1,0,.26s0,0,0,0a.36.36,0,0,1,0,.1l-1.33,1.43a1.83,1.83,0,0,1-.53.07H133.72a1.08,1.08,0,0,1-1.08-1v-4.3a1.08,1.08,0,0,1,1.08-1.08h33.16A1.09,1.09,0,0,1,168,208.05Z" transform="translate(28.38 38.32)"/><rect class="cls-1" x="162.53" y="203.27" width="15.89" height="4.9" rx="0.95" transform="translate(-67.15 219.12) rotate(-45)"/><path class="cls-6" d="M178.21,198.62l-.08,0-.2,0-.43.1h-.07c-.7.15-1.44.3-2.21.43l-2,.34c-2,.3-4.08.56-6.37.78-3.08.31-6.46.53-10.09.68h-.15c-1.7.07-3.46.12-5.26.15h-1.72v-2.91l0-2.66v-1.27h.3c1.38,0,2.73,0,4-.08.52,0,1,0,1.54-.07a78.31,78.31,0,0,0,8.12-.82h0c4.15-.66,7.33-1.6,9-2.71l1.7,2.4Z" transform="translate(28.38 38.32)"/><path class="cls-6" d="M150,201.2h-.41c-2.25,0-4.42-.08-6.53-.16h0c-4-.15-7.68-.38-11-.7h0c-.87-.08-1.71-.16-2.54-.26h0c-1-.1-1.93-.22-2.85-.34h0q-3-.42-5.51-.91l-1-.21.15-.21h0l4.42-6,1.27-1.72,0,0c1.66,1.06,4.82,2,8.93,2.62,2.43.38,5.19.67,8.17.84,2.08.13,4.27.19,6.54.19h.31l0,1.27,0,2.66v.36l0,1v.73h0Z" transform="translate(28.38 38.32)"/><path class="cls-5" d="M143.18,200.05a2.59,2.59,0,0,0-.11.64l-.15,6.64h-9.19a1.08,1.08,0,0,0-1.09,1.08v.86a45.83,45.83,0,0,1-6.77-1.36l-4.46-4.07a2.15,2.15,0,0,1,1.3-3.74Z" transform="translate(28.38 38.32)"/><path class="cls-6" d="M157.1,211.55a2.32,2.32,0,0,1-.09.65,2,2,0,0,1-1.91,1.52H133a2,2,0,0,1-1.31-.51l-5.79-5.3a45.83,45.83,0,0,0,6.77,1.36c3,.41,6.45.71,10.22.86,1.74.07,3.55.12,5.41.12h.26c3,0,5.85-.1,8.53-.26Z" transform="translate(28.38 38.32)"/><path class="cls-5" d="M157,207.33H142.92l.15-6.64a2.59,2.59,0,0,1,.11-.64l11.69,0a2.07,2.07,0,0,1,2,2.07Z" transform="translate(28.38 38.32)"/><path class="cls-5" d="M178.44,202.12a1.75,1.75,0,0,1-.26.29l-5.41,5h0a6.55,6.55,0,0,1-.71.27h0a31.6,31.6,0,0,1-4.05,1.05v-.28a1.5,1.5,0,0,0,0-.22,1.08,1.08,0,0,0-1.06-.86H157V207l-.07-3.14,0-1.74c0-.07,0-.13,0-.2h0a2.2,2.2,0,0,0-.29-.85,1.79,1.79,0,0,0-.58-.64,1.86,1.86,0,0,0-1.12-.37H143.18a1.46,1.46,0,0,1,.16-.36l.1-.17a1.91,1.91,0,0,1,1.62-.88h10.4l21.43.06a1.9,1.9,0,0,1,.54.07l.06,0a2.07,2.07,0,0,1,1.35,1.67h0a.77.77,0,0,1,0,.15A2.07,2.07,0,0,1,178.44,202.12Z" transform="translate(28.38 38.32)"/><path class="cls-6" d="M172.76,207.36,168,211.69l-.05,0a1.92,1.92,0,0,1-1.25.47h-21.9a2,2,0,0,1-2-2.07c1.74.07,3.55.12,5.41.12h3.57l.5,0h.35l.34,0,2-.07,2-.11a87.74,87.74,0,0,0,10.92-1.3A26.6,26.6,0,0,0,172.76,207.36Z" transform="translate(28.38 38.32)"/><path class="cls-5" d="M157.06,210l-2,.11-2,.07-.34,0h-.35l-.5,0h-3.57c-1.86,0-3.67-.05-5.41-.12a.19.19,0,0,1,0-.08l.07-2.72H157Z" transform="translate(28.38 38.32)"/><path class="cls-6" d="M168,208.69l-.54.11-1.19.2-1.24.19c-.22,0-.43.07-.65.09l-.63.09-.19,0-.53.07-.69.08-.71.07-.54.06-.5.05h-.09l-.51.05-1.77.14-.53,0-.59,0h0l-2,.11-2,.08h-4.76c-1.85,0-3.65-.05-5.39-.11h0c-3.77-.16-7.24-.46-10.22-.86v3.37a1.08,1.08,0,0,0,.28.72,1.1,1.1,0,0,0,.81.36h32.45l.4-.42,1.33-1.43.07-.07v-3.11Z" transform="translate(28.38 38.32)"/><path class="cls-5" d="M168.31,211.53s0,0-.07,0" transform="translate(28.38 38.32)"/><path class="cls-5" d="M165.25,214a.59.59,0,0,0-.29,0" transform="translate(28.38 38.32)"/><path class="cls-5" d="M167.91,211.87a1.88,1.88,0,0,1-1.33,1.43Z" transform="translate(28.38 38.32)"/><polyline class="cls-5" points="194.96 251.61 194.56 252.04 193.63 253.03"/><polyline class="cls-5" points="196.77 249.68 196.75 249.69 196.75 249.7 196.64 249.81 196.36 250.11 196.3 250.18"/><path class="cls-6" d="M178.44,202.12l-.26,0-.17,0-.66.09c-2.38.32-5,.6-7.73.84-3.9.34-8.15.58-12.7.72h0q-2.72.09-5.58.12h-.49l0-2.76v-.77h0v-2.12l0-2.65h.37c.9,0,1.8,0,2.69,0l1.54,0a101.18,101.18,0,0,0,13.12-1.23h0a51.15,51.15,0,0,0,5.65-1.25h0l3.9,5.54-.08,0a2.77,2.77,0,0,1,.74,1.79,1.48,1.48,0,0,1,0,.21A2.07,2.07,0,0,1,178.44,202.12Z" transform="translate(28.38 38.32)"/><path class="cls-6" d="M151.33,204h-.49c-2.7,0-5.32-.09-7.84-.18h0a202.76,202.76,0,0,1-22.24-1.9h0l-1-.16a2.51,2.51,0,0,1-.37-1.27,3,3,0,0,1,.94-2h0l4.42-6,.11,0a40.75,40.75,0,0,0,6.15,1.59,97.1,97.1,0,0,0,12.17,1.39c2.1.12,4.29.19,6.55.21h1.61l0,2.65v2.89Z" transform="translate(28.38 38.32)"/><rect class="cls-7" x="172.49" y="210.03" width="9.96" height="9.96" rx="0.85"/><circle class="cls-1" cx="185.62" cy="217.78" r="1.25"/><circle class="cls-1" cx="168.79" cy="217.78" r="1.25"/><path class="cls-1" d="M131.72,215.12a.32.32,0,0,1,.11-.54.33.33,0,0,1,.16-.53c-.1-.26,0-.46.24-.5-.09-.27,0-.46.27-.5a.33.33,0,0,1,.32-.44c0-.28.13-.44.38-.4,0-.28.15-.43.4-.39.05-.27.22-.39.46-.31.06-.28.25-.39.47-.28.1-.26.3-.35.51-.23a.33.33,0,0,1,.53-.17c.15-.24.36-.28.54-.11.18-.23.4-.25.55-.06.22-.22.42-.21.56,0a.32.32,0,0,1,.55.06,5.67,5.67,0,0,1,1.09.27.32.32,0,0,1,.49.24,4.68,4.68,0,0,1,1.35,1,.33.33,0,0,1,.38.4.34.34,0,0,1,.31.47.31.31,0,0,1,.28.47,6.14,6.14,0,0,1,.41,1,.33.33,0,0,1,.1.55.32.32,0,0,1,0,.55c.23.17.23.4,0,.54.18.22.16.43-.06.56a.32.32,0,0,1-.11.54.34.34,0,0,1-.16.53c.09.27,0,.46-.24.5.08.27,0,.46-.27.5a.33.33,0,0,1-.33.44c0,.28-.13.44-.37.41,0,.27-.16.42-.41.38a.34.34,0,0,1-.46.32c-.06.27-.25.38-.47.28-.1.26-.29.35-.51.22a.34.34,0,0,1-.53.18.33.33,0,0,1-.54.11c-.17.22-.39.24-.55.05-.21.22-.41.22-.56,0a.32.32,0,0,1-.55-.05,4.32,4.32,0,0,1-1.58-.52.32.32,0,0,1-.48-.26c-.28,0-.44-.08-.46-.34a.32.32,0,0,1-.4-.38,3.1,3.1,0,0,1-.7-.86,5.71,5.71,0,0,1-.51-1,4.95,4.95,0,0,1-.28-1.08.31.31,0,0,1-.05-.54c-.22-.18-.23-.41,0-.55A.34.34,0,0,1,131.72,215.12Zm5.22-3.19a4,4,0,1,0,4,4A4,4,0,0,0,136.94,211.93Z" transform="translate(28.38 38.32)"/><path class="cls-1" d="M136.94,212.24a3.71,3.71,0,1,1-3.71,3.71A3.71,3.71,0,0,1,136.94,212.24Zm-3.43,4.22.17,0,1.45-.44a.54.54,0,0,0,.26-.95l-1.06-1.14a.53.53,0,0,0-.11-.09A3.51,3.51,0,0,0,133.51,216.46Zm.2.75a3.48,3.48,0,0,0,2,2c.1-.4.19-.77.27-1.15a4.67,4.67,0,0,0,.13-.65.5.5,0,0,0-.57-.56C134.91,216.93,134.32,217.07,133.71,217.21Zm5.4,1.45c-.46-.42-.9-.85-1.36-1.24a.53.53,0,0,0-.82.28l-.18.6-.33,1.09A3.53,3.53,0,0,0,139.11,218.66Zm1.07-4a3.55,3.55,0,0,0-2-2c-.14.61-.29,1.19-.4,1.78a.52.52,0,0,0,.63.58C139,215,139.58,214.83,140.18,214.7Zm.2.73c-.61.19-1.18.35-1.74.54a.54.54,0,0,0-.18.87c.22.25.45.48.67.72l.52.56A3.54,3.54,0,0,0,140.38,215.43Zm-5.58-2.2a.56.56,0,0,0,0,.08c.41.38.81.76,1.23,1.13a.53.53,0,0,0,.88-.26c.1-.33.2-.66.31-1l.19-.67A3.47,3.47,0,0,0,134.8,213.23Zm2.68,2.72a.54.54,0,0,0-.54-.54.55.55,0,0,0-.53.55.54.54,0,0,0,.54.53A.54.54,0,0,0,137.48,216Z" transform="translate(28.38 38.32)"/><path class="cls-1" d="M157,215.12a.32.32,0,0,1,.11-.54.34.34,0,0,1,.16-.53c-.1-.26,0-.46.24-.5-.08-.27,0-.46.27-.5a.33.33,0,0,1,.32-.44c0-.28.14-.44.38-.4,0-.29.16-.43.41-.39a.34.34,0,0,1,.46-.32c.06-.27.25-.38.47-.27.1-.26.3-.35.51-.23a.33.33,0,0,1,.53-.17c.15-.24.36-.28.54-.12.17-.22.39-.24.55-.05.21-.22.41-.22.56,0a.32.32,0,0,1,.54.05.34.34,0,0,1,.56.12.34.34,0,0,1,.53.16.33.33,0,0,1,.5.24c.25-.09.46,0,.48.26.28,0,.44.08.46.34a.32.32,0,0,1,.4.38,3,3,0,0,1,.7.87.32.32,0,0,1,.28.47.32.32,0,0,1,.23.5,4.95,4.95,0,0,1,.28,1.08.32.32,0,0,1,.05.55.31.31,0,0,1,0,.54.34.34,0,0,1-.07.56.32.32,0,0,1-.11.54.33.33,0,0,1-.16.53c.1.27,0,.46-.24.5.09.27,0,.46-.27.5a.33.33,0,0,1-.32.44c0,.28-.13.44-.38.4,0,.28-.16.43-.4.39a.34.34,0,0,1-.46.32c-.06.27-.25.38-.48.27-.09.27-.29.35-.5.23a.33.33,0,0,1-.53.17c-.15.24-.36.28-.55.11a.32.32,0,0,1-.55.06c-.2.22-.41.22-.56,0a.31.31,0,0,1-.54-.06,5.67,5.67,0,0,1-1.09-.27.32.32,0,0,1-.49-.24.33.33,0,0,1-.49-.26.34.34,0,0,1-.45-.34,4.2,4.2,0,0,1-1.1-1.24,5.71,5.71,0,0,1-.51-1,.34.34,0,0,1-.18-.53.33.33,0,0,1-.1-.55.32.32,0,0,1,0-.55c-.23-.17-.23-.4,0-.54C156.77,215.46,156.79,215.25,157,215.12Zm5.23-3.2a4,4,0,1,0,4,4A4,4,0,0,0,162.24,211.92Z" transform="translate(28.38 38.32)"/><path class="cls-1" d="M162.24,212.24a3.71,3.71,0,1,1-3.71,3.71A3.71,3.71,0,0,1,162.24,212.24Zm-3.44,4.21.17,0,1.45-.45a.54.54,0,0,0,.27-.94c-.35-.39-.71-.76-1.06-1.14l-.11-.09A3.49,3.49,0,0,0,158.8,216.45Zm.21.76a3.51,3.51,0,0,0,2,2c.09-.4.18-.77.27-1.15a4.67,4.67,0,0,0,.13-.65.51.51,0,0,0-.58-.57C160.2,216.93,159.62,217.07,159,217.21Zm5.39,1.45c-.46-.42-.89-.85-1.36-1.24a.52.52,0,0,0-.81.28c-.07.2-.13.4-.19.6-.11.36-.21.71-.33,1.09A3.56,3.56,0,0,0,164.4,218.66Zm1.07-4a3.5,3.5,0,0,0-2-2c-.13.61-.28,1.19-.4,1.78a.53.53,0,0,0,.64.58Zm.2.74c-.6.19-1.17.35-1.73.54a.53.53,0,0,0-.18.87c.21.24.44.48.67.72l.52.56A3.49,3.49,0,0,0,165.67,215.43Zm-5.58-2.2s0,.06.06.07c.41.38.81.77,1.22,1.14a.53.53,0,0,0,.88-.26c.11-.33.21-.66.31-1s.13-.43.2-.67A3.48,3.48,0,0,0,160.09,213.23Zm2.69,2.72a.54.54,0,0,0-.54-.54.54.54,0,1,0,0,1.08A.54.54,0,0,0,162.78,216Z" transform="translate(28.38 38.32)"/><line class="cls-5" x1="126.81" y1="220.11" x2="126.72" y2="226.1"/><path class="cls-1" d="M99.48,179.14l-.15,10.56a1.26,1.26,0,0,1-1.26,1.24l-20.33-.08a1.26,1.26,0,0,1-1-2L84,178.4a1.26,1.26,0,0,1,1-.53H98.23A1.24,1.24,0,0,1,99.48,179.14Z" transform="translate(28.38 38.32)"/><path class="cls-1" d="M91,179.17l.16,10.51a1.28,1.28,0,0,0,1.29,1.26l20.25-.08a1.28,1.28,0,0,0,1-2l-7.25-10.42a1.26,1.26,0,0,0-1-.55H92.27A1.28,1.28,0,0,0,91,179.17Z" transform="translate(28.38 38.32)"/><path class="cls-1" d="M114.85,190.94c0,.05,0,.09,0,.14a1.94,1.94,0,0,1-.45,1,4.55,4.55,0,0,1-1.17,1h0a6.54,6.54,0,0,1-.59.34,23.3,23.3,0,0,1-6,1.87l-.63.12h0l-.68.12c-1.54.25-3.22.45-5,.58h0c-1.68.13-3.44.19-5.26.19-1.41,0-2.78,0-4.1-.11h0a58.68,58.68,0,0,1-6.11-.66h0l-.41-.07c-3.54-.62-6.32-1.53-7.83-2.62h0l-.25-.19h0a3.09,3.09,0,0,1-.78-.86,1.63,1.63,0,0,1-.24-.84A2,2,0,0,1,76,189.6h0a4.61,4.61,0,0,1,.65-.56,18.26,18.26,0,0,1,6.43-2.34c.83-.18,1.71-.33,2.64-.47,1.67-.24,3.49-.43,5.4-.53,1.3-.07,2.63-.11,4-.11,1.12,0,2.21,0,3.28.07l1,.05c1.91.12,3.71.31,5.37.56h0q1.77.27,3.3.63h0a14.54,14.54,0,0,1,5.88,2.44,3.28,3.28,0,0,1,.42.41A1.87,1.87,0,0,1,114.85,190.94Z" transform="translate(28.38 38.32)"/><path class="cls-1" d="M100.39,198.08l-.14-6.27a1.37,1.37,0,0,0-1.33-1.38l-21.32.06a1.42,1.42,0,0,0-.86,2.47l6.79,6.22a1.31,1.31,0,0,0,.87.34H99.07A1.37,1.37,0,0,0,100.39,198.08Z" transform="translate(28.38 38.32)"/><path class="cls-1" d="M91,197.08l.15-6.2a1.34,1.34,0,0,1,1.31-1.36l21.1,0a1.41,1.41,0,0,1,.86,2.45l-6.73,6.16a1.3,1.3,0,0,1-.86.33H92.26A1.36,1.36,0,0,1,91,197.08Z" transform="translate(28.38 38.32)"/><path class="cls-1" d="M107.61,196v2.26a1.1,1.1,0,0,1,0,.18v0s0,0,0,.07l-.89.95a1.27,1.27,0,0,1-.34,0H84.9a.71.71,0,0,1-.71-.68V196a.71.71,0,0,1,.71-.72h22A.72.72,0,0,1,107.61,196Z" transform="translate(28.38 38.32)"/><rect class="cls-1" x="104.01" y="192.83" width="10.54" height="3.25" rx="0.95" transform="translate(-77.11 172.54) rotate(-45)"/><path class="cls-6" d="M114.41,189.74h0l-.14,0-.28.06,0,0-1.47.28-1.35.22c-1.29.2-2.7.38-4.22.52-2,.21-4.29.36-6.69.45h-.1c-1.13,0-2.3.08-3.49.1H95.43v-4.53h.2c.92,0,1.81,0,2.68,0l1-.05a52.88,52.88,0,0,0,5.39-.55h0a16.15,16.15,0,0,0,5.93-1.79l1.13,1.59Z" transform="translate(28.38 38.32)"/><path class="cls-6" d="M95.7,191.45h-.27c-1.49,0-2.94,0-4.33-.1h0c-2.65-.1-5.1-.26-7.33-.47h0l-1.68-.17h0l-1.88-.23h0c-1.33-.18-2.55-.38-3.65-.6l-.66-.14.1-.14h0l2.93-4,.84-1.14h0a17,17,0,0,0,5.92,1.74,52.77,52.77,0,0,0,5.42.56c1.38.08,2.83.13,4.33.13h.21v.84l0,1.76v1.41h0Z" transform="translate(28.38 38.32)"/><path class="cls-5" d="M91.18,190.69a1.42,1.42,0,0,0-.08.42l-.1,4.41H84.91a.71.71,0,0,0-.72.71v.58a31.26,31.26,0,0,1-4.5-.91l-3-2.7a1.42,1.42,0,0,1,.86-2.48Z" transform="translate(28.38 38.32)"/><path class="cls-6" d="M100.4,198.31a1.27,1.27,0,0,1-.05.44,1.34,1.34,0,0,1-1.27,1H84.4a1.28,1.28,0,0,1-.86-.34l-3.85-3.52a31.26,31.26,0,0,0,4.5.91c2,.27,4.27.47,6.77.57,1.16,0,2.36.07,3.59.08h.17c2,0,3.89-.07,5.66-.18Z" transform="translate(28.38 38.32)"/><path class="cls-5" d="M100.34,195.52H91l.1-4.41a1.42,1.42,0,0,1,.08-.42l7.75,0a1.37,1.37,0,0,1,1.33,1.37Z" transform="translate(28.38 38.32)"/><path class="cls-5" d="M114.56,192.06a1.63,1.63,0,0,1-.17.2l-3.59,3.28h0l-.48.18h0a21.17,21.17,0,0,1-2.69.69v-.19a.61.61,0,0,0,0-.14.72.72,0,0,0-.7-.57h-6.57v-.24l0-2.08,0-1.16s0-.09,0-.13h0a1.55,1.55,0,0,0-.19-.56,1.34,1.34,0,0,0-.39-.43,1.28,1.28,0,0,0-.74-.24H91.18a1.22,1.22,0,0,1,.1-.24.41.41,0,0,1,.07-.11,1.29,1.29,0,0,1,1.07-.59h6.9l14.21,0a1,1,0,0,1,.36.06h0a1.38,1.38,0,0,1,.9,1.11h0s0,.07,0,.1A1.36,1.36,0,0,1,114.56,192.06Z" transform="translate(28.38 38.32)"/><path class="cls-6" d="M110.8,195.54l-3.15,2.87,0,0a1.25,1.25,0,0,1-.82.31H92.27A1.35,1.35,0,0,1,91,197.38c1.16,0,2.36.07,3.59.08h3.16l1.32-.05,1.35-.07a59.17,59.17,0,0,0,7.24-.86A18.28,18.28,0,0,0,110.8,195.54Z" transform="translate(28.38 38.32)"/><path class="cls-5" d="M100.38,197.28l-1.35.07-1.32.05H94.55c-1.23,0-2.43,0-3.59-.08v-.06l0-1.8h9.34Z" transform="translate(28.38 38.32)"/><path class="cls-6" d="M107.61,196.42l-.36.07-.79.14-.82.12-.43.06-.42.06-.13,0-.34,0-.46,0-.47.05-.36,0-.34,0h-.06l-.34,0-1.17.09-.35,0-.39,0h0l-1.35.07-1.32.06H94.55c-1.23,0-2.42,0-3.57-.08h0c-2.5-.1-4.8-.3-6.77-.57V199a.71.71,0,0,0,.18.48.73.73,0,0,0,.54.24h21.52l.26-.28.89-.95,0-.05v-2.06Z" transform="translate(28.38 38.32)"/><path class="cls-5" d="M107.84,198.31s0,0,0,0" transform="translate(28.38 38.32)"/><path class="cls-5" d="M105.81,199.94a.47.47,0,0,0-.19,0" transform="translate(28.38 38.32)"/><path class="cls-5" d="M107.58,198.53a1.28,1.28,0,0,1-.89.95Z" transform="translate(28.38 38.32)"/><polyline class="cls-5" points="135.07 237.79 134.81 238.07 134.2 238.73"/><polyline class="cls-5" points="136.27 236.51 136.26 236.52 136.26 236.52 136.19 236.6 136 236.8 135.96 236.84"/><path class="cls-6" d="M114.56,192.06l-.17,0h-.11l-.44.06c-1.58.22-3.3.4-5.13.56-2.58.22-5.41.38-8.43.48h0c-1.2,0-2.44.06-3.7.08h-.32v-2.35h0v-1.41l0-1.76h.24c.6,0,1.2,0,1.79,0l1,0a67.32,67.32,0,0,0,8.7-.82h0a30.81,30.81,0,0,0,3.75-.83h0l2.59,3.67h0a1.87,1.87,0,0,1,.49,1.19c0,.05,0,.09,0,.14A1.36,1.36,0,0,1,114.56,192.06Z" transform="translate(28.38 38.32)"/><path class="cls-6" d="M96.58,193.28h-.32c-1.79,0-3.53-.06-5.2-.13h0a134.32,134.32,0,0,1-14.75-1.25h0l-.69-.11a1.63,1.63,0,0,1-.24-.84A2,2,0,0,1,76,189.6h0l2.93-4,.07,0a27.68,27.68,0,0,0,4.08,1.06,64.06,64.06,0,0,0,8.07.92c1.4.08,2.85.13,4.34.14h1.07l0,1.76v3.76Z" transform="translate(28.38 38.32)"/><rect class="cls-7" x="120.17" y="210.21" width="6.6" height="6.6" rx="0.85"/><circle class="cls-1" cx="128.88" cy="215.36" r="0.83"/><circle class="cls-1" cx="117.72" cy="215.36" r="0.83"/><path class="cls-1" d="M83.57,200.68a.22.22,0,0,1,.08-.36.22.22,0,0,1,.1-.35c-.06-.17,0-.3.16-.33-.06-.18,0-.3.18-.33a.21.21,0,0,1,.21-.29c0-.19.09-.29.25-.27,0-.18.11-.28.27-.25a.23.23,0,0,1,.31-.21c0-.18.16-.26.31-.19.07-.17.2-.23.34-.15a.22.22,0,0,1,.35-.11c.1-.16.24-.19.36-.08.11-.14.26-.16.36,0,.14-.15.28-.15.37,0a.22.22,0,0,1,.37,0c.16-.1.29-.08.37.08a.22.22,0,0,1,.35.11.22.22,0,0,1,.33.16.21.21,0,0,1,.32.17c.18,0,.29.05.3.22a.22.22,0,0,1,.27.25,2.45,2.45,0,0,1,.46.58.2.2,0,0,1,.18.31,2.75,2.75,0,0,1,.27.69.21.21,0,0,1,.07.36.21.21,0,0,1,0,.36c.15.12.15.27,0,.37.12.14.11.28,0,.37a.21.21,0,0,1-.07.36.22.22,0,0,1-.11.35c.07.17,0,.3-.16.33.06.18,0,.3-.18.33a.21.21,0,0,1-.21.29c0,.18-.09.29-.25.27,0,.18-.11.28-.27.25,0,.18-.15.27-.31.21,0,.18-.16.26-.31.19-.07.17-.19.23-.34.15a4.29,4.29,0,0,1-.71.19c-.11.14-.26.16-.36,0-.14.15-.27.15-.37,0a.21.21,0,0,1-.36,0c-.16.1-.29.08-.37-.08a.23.23,0,0,1-.36-.11.2.2,0,0,1-.32-.16.22.22,0,0,1-.33-.17.23.23,0,0,1-.3-.22.22.22,0,0,1-.27-.25.22.22,0,0,1-.25-.27.23.23,0,0,1-.21-.31.21.21,0,0,1-.18-.31.22.22,0,0,1-.15-.34.22.22,0,0,1-.12-.35.22.22,0,0,1-.07-.36.21.21,0,0,1,0-.36c-.15-.12-.15-.27,0-.36A.23.23,0,0,1,83.57,200.68ZM87,198.57a2.67,2.67,0,1,0,2.67,2.66A2.68,2.68,0,0,0,87,198.57Z" transform="translate(28.38 38.32)"/><path class="cls-1" d="M87,198.77a2.47,2.47,0,1,1-2.46,2.46A2.46,2.46,0,0,1,87,198.77Zm-2.28,2.8.11,0,1-.29a.36.36,0,0,0,.18-.63l-.7-.75-.08-.06A2.35,2.35,0,0,0,84.76,201.57Zm.14.5a2.3,2.3,0,0,0,1.3,1.31c.06-.27.12-.51.17-.76a2.29,2.29,0,0,0,.09-.44.34.34,0,0,0-.38-.37C85.69,201.88,85.3,202,84.9,202.07Zm3.57,1c-.3-.29-.59-.57-.9-.83a.35.35,0,0,0-.54.19l-.12.4c-.07.23-.14.47-.22.71A2.31,2.31,0,0,0,88.47,203Zm.71-2.64a2.33,2.33,0,0,0-1.3-1.31c-.09.41-.19.79-.27,1.18a.35.35,0,0,0,.42.39Zm.14.49c-.4.13-.78.23-1.16.36a.35.35,0,0,0-.11.58c.14.16.29.31.44.47l.34.38A2.36,2.36,0,0,0,89.32,200.89Zm-3.71-1.46,0,0,.81.76a.36.36,0,0,0,.59-.18c.07-.22.14-.44.2-.66s.09-.28.13-.44A2.34,2.34,0,0,0,85.61,199.43Zm1.79,1.8a.36.36,0,0,0-.36-.35.36.36,0,0,0-.36.36.37.37,0,0,0,.36.35A.36.36,0,0,0,87.4,201.23Z" transform="translate(28.38 38.32)"/><path class="cls-1" d="M100.35,200.68a.21.21,0,0,1,.07-.36.22.22,0,0,1,.11-.35c-.07-.17,0-.3.16-.33-.06-.18,0-.3.18-.33a.21.21,0,0,1,.21-.29c0-.19.09-.29.25-.27,0-.19.1-.28.27-.25,0-.18.15-.27.31-.21,0-.18.16-.26.31-.19.06-.17.19-.23.33-.15.08-.16.23-.21.35-.11.1-.16.25-.19.37-.08.11-.15.26-.16.36,0,.14-.15.27-.15.37,0a.21.21,0,0,1,.36,0c.16-.1.29-.08.37.08a.22.22,0,0,1,.35.11.21.21,0,0,1,.33.16.22.22,0,0,1,.33.17.23.23,0,0,1,.3.22.22.22,0,0,1,.27.25,2.45,2.45,0,0,1,.46.58.21.21,0,0,1,.18.31,3.07,3.07,0,0,1,.34,1.05.21.21,0,0,1,0,.36c.15.12.15.27,0,.36a.23.23,0,0,1,0,.38.22.22,0,0,1-.08.36.22.22,0,0,1-.1.35c.06.17,0,.3-.16.33.06.18,0,.3-.18.33a.21.21,0,0,1-.21.29c0,.18-.09.29-.26.27,0,.18-.1.28-.26.25a.23.23,0,0,1-.31.21c0,.18-.17.26-.31.19-.07.17-.2.23-.34.15a.22.22,0,0,1-.35.11c-.1.16-.24.19-.36.08a.22.22,0,0,1-.37,0c-.13.15-.27.15-.37,0a.21.21,0,0,1-.36,0,.23.23,0,0,1-.37-.08.22.22,0,0,1-.35-.11.22.22,0,0,1-.33-.16.21.21,0,0,1-.32-.17c-.18,0-.29-.05-.3-.22-.18,0-.29-.08-.27-.25a.22.22,0,0,1-.25-.27.23.23,0,0,1-.21-.31.21.21,0,0,1-.19-.31.22.22,0,0,1-.15-.34.21.21,0,0,1-.11-.35.21.21,0,0,1-.07-.36.21.21,0,0,1,0-.36c-.15-.12-.15-.27,0-.36C100.19,200.91,100.2,200.77,100.35,200.68Zm3.46-2.12a2.67,2.67,0,1,0,2.68,2.67A2.69,2.69,0,0,0,103.81,198.56Z" transform="translate(28.38 38.32)"/><path class="cls-1" d="M103.82,198.77a2.47,2.47,0,1,1-2.47,2.46A2.46,2.46,0,0,1,103.82,198.77Zm-2.28,2.8.11,0,1-.29a.36.36,0,0,0,.18-.63l-.7-.75-.08-.06A2.35,2.35,0,0,0,101.54,201.57Zm.13.5a2.33,2.33,0,0,0,1.3,1.31c.07-.27.13-.51.18-.76s.07-.29.09-.44a.34.34,0,0,0-.38-.37C102.46,201.88,102.08,202,101.67,202.07Zm3.58,1c-.3-.28-.59-.56-.9-.82a.35.35,0,0,0-.54.19l-.12.4c-.08.23-.15.47-.22.71A2.3,2.3,0,0,0,105.25,203Zm.71-2.63a2.31,2.31,0,0,0-1.31-1.31c-.09.41-.18.79-.26,1.18a.35.35,0,0,0,.42.39Zm.13.49c-.4.12-.78.23-1.15.36a.35.35,0,0,0-.12.57l.45.48.34.38A2.35,2.35,0,0,0,106.09,200.89Zm-3.7-1.46,0,0c.27.25.53.51.81.76a.35.35,0,0,0,.58-.18c.08-.22.14-.44.21-.66l.13-.44A2.33,2.33,0,0,0,102.39,199.43Zm1.78,1.8a.36.36,0,1,0-.71,0,.36.36,0,0,0,.36.35A.35.35,0,0,0,104.17,201.23Z" transform="translate(28.38 38.32)"/><line class="cls-5" x1="234.8" y1="220.11" x2="234.71" y2="226.1"/><path class="cls-1" d="M207.47,179.14l-.16,10.56a1.25,1.25,0,0,1-1.25,1.24l-20.34-.08a1.25,1.25,0,0,1-1-2L192,178.4a1.24,1.24,0,0,1,1-.53h13.2A1.25,1.25,0,0,1,207.47,179.14Z" transform="translate(28.38 38.32)"/><path class="cls-1" d="M199,179.17l.16,10.51a1.28,1.28,0,0,0,1.28,1.26l20.26-.08a1.28,1.28,0,0,0,1-2l-7.25-10.42a1.26,1.26,0,0,0-1.05-.55H200.26A1.28,1.28,0,0,0,199,179.17Z" transform="translate(28.38 38.32)"/><path class="cls-1" d="M222.83,190.94v.14a1.94,1.94,0,0,1-.45,1,4.55,4.55,0,0,1-1.17,1h0a5.58,5.58,0,0,1-.6.34,23.08,23.08,0,0,1-6,1.87l-.63.12h0l-.69.12c-1.53.25-3.21.45-5,.58h0c-1.68.13-3.44.19-5.26.19-1.41,0-2.78,0-4.11-.11h0a58.68,58.68,0,0,1-6.11-.66h0l-.41-.07c-3.55-.62-6.32-1.53-7.83-2.62h0l-.25-.19h0a2.94,2.94,0,0,1-.78-.86,1.63,1.63,0,0,1-.24-.84,2,2,0,0,1,.62-1.34h0a4.72,4.72,0,0,1,.66-.56A18.26,18.26,0,0,1,191,186.7c.83-.18,1.71-.33,2.64-.47,1.67-.24,3.48-.43,5.4-.53,1.29-.07,2.63-.11,4-.11,1.12,0,2.21,0,3.28.07l1,.05c1.91.12,3.72.31,5.37.56h0q1.77.27,3.3.63h0a14.54,14.54,0,0,1,5.88,2.44,2.65,2.65,0,0,1,.41.41A1.87,1.87,0,0,1,222.83,190.94Z" transform="translate(28.38 38.32)"/><path class="cls-1" d="M208.38,198.08l-.15-6.27a1.36,1.36,0,0,0-1.33-1.38l-21.31.06a1.42,1.42,0,0,0-.87,2.47l6.8,6.22a1.29,1.29,0,0,0,.87.34h14.66A1.37,1.37,0,0,0,208.38,198.08Z" transform="translate(28.38 38.32)"/><path class="cls-1" d="M198.94,197.08l.14-6.2a1.35,1.35,0,0,1,1.32-1.36l21.1,0a1.41,1.41,0,0,1,.86,2.45l-6.73,6.16a1.32,1.32,0,0,1-.86.33H200.25A1.35,1.35,0,0,1,198.94,197.08Z" transform="translate(28.38 38.32)"/><path class="cls-1" d="M215.59,196v2.26a1.09,1.09,0,0,1,0,.18v0s0,0,0,.07l-.89.95a1.34,1.34,0,0,1-.35,0H192.89a.71.71,0,0,1-.71-.68,0,0,0,0,1,0,0V196a.72.72,0,0,1,.72-.72h22A.71.71,0,0,1,215.59,196Z" transform="translate(28.38 38.32)"/><rect class="cls-1" x="212" y="192.83" width="10.54" height="3.25" rx="0.95" transform="translate(-45.48 248.9) rotate(-45)"/><path class="cls-6" d="M222.39,189.74h0l-.13,0c-.1,0-.19.05-.29.06l0,0-1.47.28-1.35.22c-1.29.2-2.71.38-4.23.52-2,.21-4.28.36-6.69.45h-.09c-1.13,0-2.3.08-3.5.1h-1.13v-1.93l0-1.76v-.84h.2c.91,0,1.81,0,2.68,0l1-.05a52.38,52.38,0,0,0,5.38-.55h0a16.15,16.15,0,0,0,5.93-1.79l1.13,1.59Z" transform="translate(28.38 38.32)"/><path class="cls-6" d="M203.69,191.45h-.27c-1.5,0-2.94,0-4.33-.1h0c-2.64-.1-5.09-.26-7.33-.47h0l-1.69-.17h0l-1.89-.23h0c-1.34-.18-2.56-.38-3.65-.6l-.66-.14.1-.14h0l2.94-4,.84-1.14h0a17,17,0,0,0,5.92,1.74,52.77,52.77,0,0,0,5.42.56c1.38.08,2.83.13,4.33.13h.21v.84l0,1.76v1.41h0Z" transform="translate(28.38 38.32)"/><path class="cls-5" d="M199.16,190.69a1.84,1.84,0,0,0-.07.42l-.1,4.41h-6.1a.71.71,0,0,0-.71.71v.58a31.26,31.26,0,0,1-4.5-.91l-3-2.7a1.43,1.43,0,0,1,.87-2.48Z" transform="translate(28.38 38.32)"/><path class="cls-6" d="M208.39,198.31a1.27,1.27,0,0,1,0,.44,1.34,1.34,0,0,1-1.27,1H192.39a1.26,1.26,0,0,1-.86-.34l-3.85-3.52a31.26,31.26,0,0,0,4.5.91c2,.27,4.27.47,6.77.57,1.16,0,2.36.07,3.59.08h.17c2,0,3.88-.07,5.66-.18Z" transform="translate(28.38 38.32)"/><path class="cls-5" d="M208.33,195.52H199l.1-4.41a1.84,1.84,0,0,1,.07-.42l7.76,0a1.37,1.37,0,0,1,1.33,1.37Z" transform="translate(28.38 38.32)"/><path class="cls-5" d="M222.55,192.06a1.12,1.12,0,0,1-.18.2l-3.59,3.28h0l-.47.18h0a21,21,0,0,1-2.68.69v-.19a.59.59,0,0,0,0-.14.7.7,0,0,0-.7-.57h-6.56v-.24l0-2.08,0-1.16a.57.57,0,0,1,0-.13h0a1.55,1.55,0,0,0-.19-.56,1.34,1.34,0,0,0-.39-.43,1.28,1.28,0,0,0-.74-.24h-7.76a1.28,1.28,0,0,1,.11-.24.41.41,0,0,1,.07-.11,1.27,1.27,0,0,1,1.07-.59h6.9l14.21,0a1.09,1.09,0,0,1,.36.06h0a1.37,1.37,0,0,1,.89,1.11h0s0,.07,0,.1A1.41,1.41,0,0,1,222.55,192.06Z" transform="translate(28.38 38.32)"/><path class="cls-6" d="M218.78,195.54l-3.14,2.87,0,0a1.27,1.27,0,0,1-.83.31H200.26a1.35,1.35,0,0,1-1.31-1.37c1.16,0,2.36.07,3.59.08h3.16l1.31-.05,1.36-.07a59.17,59.17,0,0,0,7.24-.86A18.14,18.14,0,0,0,218.78,195.54Z" transform="translate(28.38 38.32)"/><path class="cls-5" d="M208.37,197.28l-1.36.07-1.31.05h-3.16c-1.23,0-2.43,0-3.59-.08v-.06l0-1.8h9.34Z" transform="translate(28.38 38.32)"/><path class="cls-6" d="M215.59,196.42l-.35.07-.79.14-.83.12c-.14,0-.28.05-.43.06l-.41.06-.13,0-.35,0-.46,0-.47.05-.35,0-.34,0h-.06l-.34,0-1.17.09-.35,0-.39,0h0l-1.35.07-1.31.06h-3.16c-1.23,0-2.42,0-3.58-.08h0c-2.5-.1-4.8-.3-6.77-.57V199a.71.71,0,0,0,.18.48.7.7,0,0,0,.53.24h21.53l.26-.28.89-.95,0-.05v-2.06Z" transform="translate(28.38 38.32)"/><path class="cls-5" d="M215.83,198.31s0,0-.05,0" transform="translate(28.38 38.32)"/><path class="cls-5" d="M213.8,199.94a.47.47,0,0,0-.19,0" transform="translate(28.38 38.32)"/><path class="cls-5" d="M215.57,198.53a1.3,1.3,0,0,1-.89.95Z" transform="translate(28.38 38.32)"/><polyline class="cls-5" points="243.06 237.79 242.8 238.07 242.18 238.73"/><polyline class="cls-5" points="244.26 236.51 244.25 236.52 244.25 236.52 244.18 236.6 243.99 236.8 243.95 236.84"/><path class="cls-6" d="M222.55,192.06l-.17,0h-.12l-.43.06c-1.58.22-3.3.4-5.13.56-2.59.22-5.41.38-8.43.48h0c-1.2,0-2.44.06-3.7.08h-.33l0-1.84v-.51h0v-3.17h.25c.6,0,1.2,0,1.78,0l1,0a67.32,67.32,0,0,0,8.71-.82h0a30.2,30.2,0,0,0,3.74-.83h0l2.58,3.67h0a1.87,1.87,0,0,1,.49,1.19v.14A1.41,1.41,0,0,1,222.55,192.06Z" transform="translate(28.38 38.32)"/><path class="cls-6" d="M204.57,193.28h-.33c-1.79,0-3.52-.06-5.2-.13h0a134.1,134.1,0,0,1-14.75-1.25h0l-.69-.11a1.63,1.63,0,0,1-.24-.84,2,2,0,0,1,.62-1.34h0l2.94-4,.07,0A27,27,0,0,0,191,186.7a64.06,64.06,0,0,0,8.07.92c1.39.08,2.84.13,4.34.14h1.07l0,1.76v1.92Z" transform="translate(28.38 38.32)"/><rect class="cls-7" x="228.16" y="210.21" width="6.6" height="6.6" rx="0.85"/><circle class="cls-1" cx="236.87" cy="215.36" r="0.83"/><circle class="cls-1" cx="225.71" cy="215.36" r="0.83"/><path class="cls-1" d="M191.56,200.68a.21.21,0,0,1,.07-.36.22.22,0,0,1,.11-.35.22.22,0,0,1,.16-.33c-.06-.18,0-.3.18-.33a.21.21,0,0,1,.21-.29c0-.19.09-.29.25-.27,0-.18.11-.28.27-.25a.23.23,0,0,1,.31-.21c0-.18.16-.26.31-.19.06-.17.19-.23.33-.15a.23.23,0,0,1,.36-.11.22.22,0,0,1,.36-.08c.11-.14.26-.16.36,0,.14-.15.28-.15.37,0a.21.21,0,0,1,.36,0c.16-.1.3-.08.37.08a.23.23,0,0,1,.36.11.21.21,0,0,1,.32.16.22.22,0,0,1,.33.17.23.23,0,0,1,.3.22.22.22,0,0,1,.27.25,2.45,2.45,0,0,1,.46.58.21.21,0,0,1,.18.31.22.22,0,0,1,.15.34.22.22,0,0,1,.12.35.22.22,0,0,1,.07.36.21.21,0,0,1,0,.36.22.22,0,0,1,0,.37.22.22,0,0,1,0,.37.22.22,0,0,1-.08.36.22.22,0,0,1-.1.35c.06.17,0,.3-.16.33.06.18,0,.3-.18.33a.21.21,0,0,1-.21.29c0,.18-.09.29-.25.27,0,.18-.11.28-.27.25,0,.18-.15.27-.31.21,0,.18-.16.26-.31.19-.07.17-.2.23-.34.15a4.29,4.29,0,0,1-.71.19c-.11.14-.26.16-.36,0-.14.15-.28.15-.38,0a.21.21,0,0,1-.36,0,.23.23,0,0,1-.37-.08.22.22,0,0,1-.35-.11,9.89,9.89,0,0,1-.65-.33c-.18,0-.29-.05-.3-.22a.22.22,0,0,1-.27-.25.22.22,0,0,1-.25-.27.23.23,0,0,1-.21-.31.2.2,0,0,1-.18-.31,2.75,2.75,0,0,1-.27-.69.21.21,0,0,1-.07-.36.21.21,0,0,1,0-.36c-.15-.12-.15-.27,0-.36C191.4,200.91,191.41,200.77,191.56,200.68Zm3.47-2.11a2.67,2.67,0,1,0,2.67,2.66A2.68,2.68,0,0,0,195,198.57Z" transform="translate(28.38 38.32)"/><path class="cls-1" d="M195,198.77a2.47,2.47,0,1,1-2.46,2.46A2.47,2.47,0,0,1,195,198.77Zm-2.28,2.8.11,0,1-.29a.36.36,0,0,0,.18-.63l-.7-.75-.08-.06A2.35,2.35,0,0,0,192.75,201.57Zm.13.5a2.33,2.33,0,0,0,1.3,1.31c.07-.27.13-.51.18-.76a3.43,3.43,0,0,0,.09-.44.34.34,0,0,0-.38-.37C193.68,201.88,193.29,202,192.88,202.07Zm3.58,1c-.3-.29-.59-.57-.9-.83a.35.35,0,0,0-.54.19l-.12.4c-.08.23-.15.47-.22.71A2.32,2.32,0,0,0,196.46,203Zm.71-2.64a2.33,2.33,0,0,0-1.3-1.31c-.1.41-.19.79-.27,1.18a.35.35,0,0,0,.42.39Zm.13.49c-.4.13-.78.23-1.15.36a.36.36,0,0,0-.12.58l.45.47.34.38A2.31,2.31,0,0,0,197.3,200.89Zm-3.7-1.46,0,0c.27.25.53.51.81.76a.36.36,0,0,0,.59-.18c.07-.22.13-.44.2-.66s.09-.28.13-.44A2.33,2.33,0,0,0,193.6,199.43Zm1.79,1.8a.37.37,0,0,0-.36-.35.36.36,0,0,0-.36.36.36.36,0,0,0,.72,0Z" transform="translate(28.38 38.32)"/><path class="cls-1" d="M208.34,200.68a.21.21,0,0,1,.07-.36.22.22,0,0,1,.11-.35c-.07-.17,0-.3.15-.33,0-.18,0-.3.18-.33a.22.22,0,0,1,.22-.29c0-.19.09-.29.25-.27,0-.19.1-.28.27-.25,0-.18.14-.27.3-.21,0-.18.17-.26.32-.19.06-.17.19-.23.33-.15.08-.16.22-.21.35-.11.1-.16.24-.19.36-.08.12-.15.26-.16.37,0,.14-.15.27-.15.37,0a.21.21,0,0,1,.36,0c.16-.1.29-.08.37.08a.22.22,0,0,1,.35.11.21.21,0,0,1,.33.16c.17-.07.31,0,.32.17.18,0,.29.05.3.22a.21.21,0,0,1,.27.25,2.19,2.19,0,0,1,.47.58.21.21,0,0,1,.18.31,3.07,3.07,0,0,1,.34,1.05.21.21,0,0,1,0,.36c.15.12.15.27,0,.36a.23.23,0,0,1,0,.38.21.21,0,0,1-.07.36.22.22,0,0,1-.11.35c.07.17,0,.3-.15.33.05.18,0,.3-.18.33a3.74,3.74,0,0,1-.47.56c0,.18-.1.28-.26.25a.23.23,0,0,1-.31.21c0,.18-.17.26-.32.19-.06.17-.19.23-.33.15a.22.22,0,0,1-.35.11c-.1.16-.24.19-.36.08a.22.22,0,0,1-.37,0c-.13.15-.27.15-.37,0a.21.21,0,0,1-.36,0c-.16.1-.29.08-.37-.08a.22.22,0,0,1-.35-.11.22.22,0,0,1-.33-.16c-.17.07-.31,0-.32-.17-.18,0-.29-.05-.3-.22-.18,0-.29-.08-.27-.25a.23.23,0,0,1-.26-.27.22.22,0,0,1-.2-.31.21.21,0,0,1-.19-.31,3.07,3.07,0,0,1-.34-1.05.21.21,0,0,1,0-.36c-.15-.12-.15-.27,0-.36A.23.23,0,0,1,208.34,200.68Zm3.46-2.12a2.67,2.67,0,1,0,2.68,2.67A2.69,2.69,0,0,0,211.8,198.56Z" transform="translate(28.38 38.32)"/><path class="cls-1" d="M211.8,198.77a2.47,2.47,0,1,1-2.46,2.46A2.46,2.46,0,0,1,211.8,198.77Zm-2.28,2.8.12,0,1-.29a.36.36,0,0,0,.17-.63l-.7-.75-.07-.06A2.31,2.31,0,0,0,209.52,201.57Zm.14.5a2.33,2.33,0,0,0,1.3,1.31c.06-.27.12-.51.18-.76a3.39,3.39,0,0,0,.08-.44.34.34,0,0,0-.38-.37C210.45,201.88,210.06,202,209.66,202.07Zm3.58,1c-.31-.28-.59-.56-.9-.82a.35.35,0,0,0-.54.19c-.05.13-.09.26-.13.4l-.21.71A2.3,2.3,0,0,0,213.24,203Zm.71-2.63a2.34,2.34,0,0,0-1.31-1.31c-.09.41-.19.79-.26,1.18a.35.35,0,0,0,.42.39Zm.13.49c-.4.12-.78.23-1.15.36a.35.35,0,0,0-.12.57c.14.17.29.32.44.48l.35.38A2.35,2.35,0,0,0,214.08,200.89Zm-3.7-1.46s0,0,0,0c.27.25.53.51.81.76a.35.35,0,0,0,.58-.18l.21-.66.13-.44A2.32,2.32,0,0,0,210.38,199.43Zm1.78,1.8a.36.36,0,1,0-.35.36A.36.36,0,0,0,212.16,201.23Z" transform="translate(28.38 38.32)"/><path class="cls-6" d="M148.71,40.54A109.46,109.46,0,1,0,258.17,150,109.46,109.46,0,0,0,148.71,40.54Zm0,216.1A106.64,106.64,0,1,1,255.37,150,106.63,106.63,0,0,1,148.71,256.64Z" transform="translate(28.38 38.32)"/><path class="cls-6" d="M256.07,43.94A150,150,0,0,0,43.93,256.07,150,150,0,0,0,256.07,43.94Zm-3.15,209A145.54,145.54,0,1,1,47.09,47.09,145.54,145.54,0,1,1,252.92,252.91Z" transform="translate(28.38 38.32)"/></svg>